<svg xmlns="http://www.w3.org/2000/svg" xmlns:xlink="http://www.w3.org/1999/xlink" width="0" height="0" style="position:absolute">
	
		<symbol id="accord-close" viewBox="0 0 32 32">
			<path fill-rule="evenodd" d="M15 14l-4-4h8l-4 4zm0 4l4 4h-8l4-4z"></path>
		</symbol>
	
		<symbol id="accord-open" viewBox="0 0 32 32">
			<path fill-rule="evenodd" d="M15 8l4 4h-8l4-4zm0 16l-4-4h8l-4 4z"></path>
		</symbol>
	
		<symbol id="address" viewBox="0 0 32 32">
			<path fill-rule="evenodd" d="M25.799 11.165l-2.375-1.83a1.997 1.997 0 0 0-.521-.237A2.035 2.035 0 0 0 22.336 9H15.5l.801 5h6.035c.164 0 .369-.037.566-.098.197-.061.387-.145.521-.236l2.375-1.832c.135-.091.202-.212.202-.334 0-.122-.067-.243-.201-.335zM14.5 7h-1a.5.5 0 0 0-.5.5V11H9.664c-.166 0-.37.037-.567.099-.198.06-.387.143-.521.236l-2.375 1.83c-.135.091-.201.213-.201.335 0 .121.066.242.201.335l2.375 1.832c.134.091.323.175.521.235.197.061.401.098.567.098H13v8.5a.5.5 0 0 0 .5.5h1a.5.5 0 0 0 .5-.5v-17a.5.5 0 0 0-.5-.5z"></path>
		</symbol>
	
		<symbol id="angle-2-up" viewBox="0 0 32 32">
			<path fill-rule="evenodd" d="M8 20h16l-8-8z"></path>
		</symbol>
	
		<symbol id="angle-down" viewBox="0 0 32 32">
			<path fill-rule="evenodd" d="M12 14h8l-4 4z"></path>
		</symbol>
	
		<symbol id="angle-up" viewBox="0 0 32 32">
			<path fill-rule="evenodd" d="M12 18h8l-4-4z"></path>
		</symbol>
	
		<symbol id="arrow-left" viewBox="0 0 48 48">
			<path d="M30.83 33.17L21.66 24l9.17-9.17L28 12 16 24l12 12z"></path>
		</symbol>
	
		<symbol id="arrow-left-sm" viewBox="0 0 32 32">
			<path d="M19.41 21.09l-4.58-4.59 4.58-4.59L18 10.5l-6 6 6 6z"></path>
		</symbol>
	
		<symbol id="arrow-right" viewBox="0 0 48 48">
			<path d="M17.17 33.92l9.17-9.17-9.17-9.17L20 12.75l12 12-12 12z"></path>
		</symbol>
	
		<symbol id="arrow-right-sm" viewBox="0 0 32 32">
			<path d="M12.59 21.34l4.58-4.59-4.58-4.59L14 10.75l6 6-6 6z"></path>
		</symbol>
	
		<symbol id="bookmark" viewBox="0 0 32 32">
			<path d="M21 7H11c-1.1 0-1.99.9-1.99 2L9 25l7-3 7 3V9c0-1.1-.9-2-2-2z"></path>
		</symbol>
	
		<symbol id="bookmark-border" viewBox="0 0 32 32">
			<path d="M21 7H11c-1.1 0-1.99.9-1.99 2L9 25l7-3 7 3V9c0-1.1-.9-2-2-2zm0 15l-5-2.18L11 22V9h10v13z"></path>
		</symbol>
	
		<symbol id="calc" viewBox="0 0 32 32">
			<path d="M22 6c1.1 0 2 .9 2 2v16c0 1.1-.9 2-2 2H10c-1.1 0-2-.9-2-2V8c0-1.1.9-2 2-2h12zM11 9v3h10V9H11zm0 5v4h4v-4h-4zm0 6v4h4v-4h-4zm6-6v4h4v-4h-4zm0 6v4h4v-4h-4z"></path>
		</symbol>
	
		<symbol id="carousel" viewBox="0 0 32 32">
			<g fill-rule="evenodd"><rect width="14" height="14" x="6" y="12" rx="2"></rect><path d="M21.994 8C23.102 8 24 8.897 24 10.006V22h-2V10H10V8h11.994z"></path></g>
		</symbol>
	
		<symbol id="carousel-border" viewBox="0 0 32 32">
			<g fill-rule="evenodd"><rect width="12" height="12" x="7" y="13" stroke="#7ED321" stroke-width="2" rx="2"></rect><path d="M21.994 8C23.102 8 24 8.897 24 10.006V22h-2V10H10V8h11.994z"></path></g>
		</symbol>
	
		<symbol id="checkbox" viewBox="0 0 16 16">
			<defs><path id="a" d="M8 8h16v16H8z"></path></defs><g fill-rule="evenodd"><g transform="translate(-8 -8)"><use xlink:href="#a"></use><path stroke="#7ED321" stroke-width="2" d="M9 9h14v14H9z"></path></g><path d="M4 8l4 4 6-6-2-2-4 4-2-2z"></path></g>
		</symbol>
	
		<symbol id="checkbox-false" viewBox="0 0 32 32">
			<path fill-rule="evenodd" stroke="#7ED321" stroke-width="2" d="M9 9h14v14H9z"></path>
		</symbol>
	
		<symbol id="close" viewBox="0 0 32 32">
			<path fill-rule="evenodd" d="M23 10.41L21.59 9 16 14.59 10.41 9 9 10.41 14.59 16 9 21.59 10.41 23 16 17.41 21.59 23 23 21.59 17.41 16z"></path>
		</symbol>
	
		<symbol id="f" viewBox="0 0 40 40">
			<g fill-rule="evenodd"><rect width="40" height="40" rx="20"></rect><path stroke="#FFF" d="M24.253 15.135h-2.405c-.285 0-.601.375-.601.873v1.737h3.008l-.455 2.477h-2.553v7.435h-2.839v-7.435h-2.575v-2.477h2.575v-1.457c0-2.09 1.45-3.788 3.44-3.788h2.405v2.635z"></path></g>
		</symbol>
	
		<symbol id="fence" viewBox="0 0 32 32">
			<path fill-rule="evenodd" d="M5 6l2-2 2 2v2.03H5V6zm6 0l2-2 2 2v2.03h-4V6zm6 0l2-2 2 2v2.03h-4V6zm6 0l2-2 2 2v2.03h-4V6zM5 24h4v4.03H5V24zm-1-3h24v2H4v-2zM4 9h24v2H4V9zm7 15h4v4.03h-4V24zm6 0h4v4.03h-4V24zm6 0h4v4.03h-4V24zM5 12h4v8H5v-8zm6 0h4v8h-4v-8zm6 0h4v8h-4v-8zm6 0h4v8h-4v-8z"></path>
		</symbol>
	
		<symbol id="filtericon" viewBox="0 0 48 48">
			<path fill-rule="evenodd" d="M22 36c-.198 0-.398-.1 0 0-.798-.3-.998-.7-1-1v-9l-9-12c.009-.7-.09-1.1 0-1 .309-.8.609-1 1-1h22c.391 0 .691.2 1 1 .09-.2-.009.2 0 1l-9 12v7c-.002.4-.202.7-1 1l-4 2zm-7-22l8 11c-.088.36.011.557 0 1v7l2-1v-6c-.011-.443.088-.64 0-1l8-11H15z"></path>
		</symbol>
	
		<symbol id="flame" viewBox="0 0 32 32">
			<g fill-rule="evenodd"><rect width="30" height="30" x="1" y="1" rx="15"></rect><path fill-rule="nonzero" d="M18.5 10c-1.5-1.938-1.188-6-1.188-6C8 8 14.188 17.625 12.5 18c-1.993.443-2.75-6.438-2.75-6.438C8.5 13.5 8 15.96 8 18c0 4 3.813 8 7.938 8C20.061 26 24 22.936 24 18c0-4.5-4-6.063-5.5-8z"></path><path d="M15.5 14c0 1-1 2 0 3.5s-1 2-1.5 2.5c.5 1.5 4.5 1 4.5-1.5s-2-3-3-4.5z"></path></g>
		</symbol>
	
		<symbol id="g" viewBox="0 0 40 40">
			<g fill-rule="evenodd"><rect width="40" height="40" rx="20"></rect><path stroke="#FFF" d="M19.401 27.377c-1.047.508-2.174.562-2.61.562h-.223c-.68 0-4.068-.156-4.068-3.241 0-3.031 3.69-3.27 4.82-3.27h.029c-.653-.87-.517-1.75-.517-1.75a3.553 3.553 0 0 1-.243.008c-.426 0-1.247-.068-1.952-.523-.864-.555-1.302-1.502-1.302-2.81 0-3.7 4.04-3.85 4.08-3.853h4.035v.089c0 .45-.811.54-1.363.614-.188.028-.564.064-.67.118 1.022.547 1.187 1.405 1.187 2.682 0 1.455-.57 2.224-1.173 2.764-.375.335-.669.598-.669.95 0 .346.403.698.872 1.11.765.675 1.816 1.593 1.816 3.143 0 1.603-.69 2.749-2.049 3.407zm8.773-7.155h-2.605v2.604h-1.736v-2.604H21.23v-1.736h2.604v-2.604h1.736v2.604h2.605v1.736zM17.276 22.22c-.09 0-.18.003-.273.01-.77.057-1.482.346-1.996.814-.51.462-.77 1.046-.734 1.634.078 1.234 1.402 1.957 3.012 1.842 1.583-.114 2.639-1.028 2.562-2.262-.073-1.16-1.081-2.038-2.571-2.038zm1.517-6.71c-.42-1.476-1.097-1.914-2.149-1.914a1.33 1.33 0 0 0-.337.047c-.456.13-.82.51-1.02 1.077-.207.573-.22 1.17-.042 1.85.321 1.217 1.186 2.1 2.057 2.1.115 0 .23-.014.337-.047.953-.268 1.55-1.723 1.154-3.113z"></path></g>
		</symbol>
	
		<symbol id="geo" viewBox="0 0 32 32">
			<path d="M16 6c-3.87 0-7 3.13-7 7 0 5.25 7 13 7 13s7-7.75 7-13c0-3.87-3.13-7-7-7zm0 9.5a2.5 2.5 0 0 1 0-5 2.5 2.5 0 0 1 0 5z"></path>
		</symbol>
	
		<symbol id="guard" viewBox="0 0 32 32">
			<path fill-rule="evenodd" d="M6 4s5 .98 10 .98S26 4 26 4v10.776C26 20.653 21 26.53 16 28c-5-1.47-10-7.837-10-13.224V4zm2 2v8.98c0 4.49 4 9.796 8 11.02 4-1.224 8-6.122 8-11.02V6s-4 .816-8 .816S8 6 8 6zm3 3s2.5.5 5 .5 5-.5 5-.5v6.286c0 3.428-2.5 6.857-5 7.714-2.5-.857-5-4.571-5-7.714V9z"></path>
		</symbol>
	
		<symbol id="infro" viewBox="0 0 32 32">
			<path fill-rule="evenodd" d="M24 8H8v2h16V8zm1 10v-2l-1-5H8l-1 5v2h1v6h10v-6h4v6h2v-6h1zm-9 4h-6v-4h6v4z"></path>
		</symbol>
	
		<symbol id="instgrm" viewBox="0 0 40 40">
			<g fill-rule="evenodd"><rect width="40" height="40" rx="20"></rect><path stroke="#FFF" d="M28.976 23.926a6.372 6.372 0 0 1-.404 2.107 4.438 4.438 0 0 1-2.539 2.539 6.372 6.372 0 0 1-2.107.403c-.926.043-1.221.053-3.579.053-2.357 0-2.653-.01-3.579-.052a6.372 6.372 0 0 1-2.107-.404 4.438 4.438 0 0 1-2.539-2.539 6.372 6.372 0 0 1-.403-2.107c-.042-.926-.052-1.221-.052-3.579 0-2.357.01-2.653.052-3.579.014-.72.15-1.432.403-2.107a4.438 4.438 0 0 1 2.54-2.539 6.372 6.372 0 0 1 2.106-.403c.926-.042 1.222-.052 3.58-.052 2.357 0 2.652.01 3.578.052.72.014 1.433.15 2.107.403a4.438 4.438 0 0 1 2.539 2.54c.253.674.39 1.386.404 2.106.042.926.052 1.222.052 3.58 0 2.357-.01 2.652-.052 3.578zM27.32 14.93a2.997 2.997 0 0 0-1.717-1.717 5.006 5.006 0 0 0-1.68-.312c-.955-.044-1.241-.053-3.658-.053-2.416 0-2.702.01-3.657.053a5.006 5.006 0 0 0-1.68.312 2.997 2.997 0 0 0-1.717 1.717 5.006 5.006 0 0 0-.312 1.68c-.044.955-.053 1.241-.053 3.657 0 2.417.01 2.703.053 3.657a4.99 4.99 0 0 0 .312 1.68c.304.79.928 1.414 1.717 1.718.538.2 1.107.305 1.68.312.955.043 1.24.052 3.657.052s2.703-.009 3.657-.052a5.006 5.006 0 0 0 1.68-.312 2.997 2.997 0 0 0 1.718-1.717c.2-.538.305-1.107.312-1.68.043-.955.052-1.241.052-3.658 0-2.416-.009-2.702-.052-3.657a5.006 5.006 0 0 0-.312-1.68zm-7.055 9.985a4.647 4.647 0 1 1 0-9.295 4.647 4.647 0 0 1 0 9.295zm0-1.631a3.017 3.017 0 1 0 0-6.033 3.017 3.017 0 0 0 0 6.033zm4.831-6.761a1.086 1.086 0 1 1 0-2.172 1.086 1.086 0 0 1 0 2.172z"></path></g>
		</symbol>
	
		<symbol id="like" viewBox="0 0 32 32">
			<g fill-rule="evenodd"><rect width="30" height="30" x="1" y="1" rx="15"></rect><path fill-rule="nonzero" d="M7 24h3.2v-9.6H7V24zm17.6-8.8c0-.88-.72-1.6-1.6-1.6h-5.048l.76-3.656.024-.256c0-.328-.136-.632-.352-.848L17.536 8l-5.264 5.272A1.564 1.564 0 0 0 11.8 14.4v8c0 .88.72 1.6 1.6 1.6h7.2c.664 0 1.232-.4 1.472-.976l2.416-5.64a1.58 1.58 0 0 0 .112-.584v-1.528l-.008-.008.008-.064z"></path></g>
		</symbol>
	
		<symbol id="mail" viewBox="0 0 32 32">
			<path d="M24 8H8c-1.1 0-1.99.9-1.99 2L6 22c0 1.1.9 2 2 2h16c1.1 0 2-.9 2-2V10c0-1.1-.9-2-2-2zm0 4l-8 5-8-5v-2l8 5 8-5v2z"></path>
		</symbol>
	
		<symbol id="menu" viewBox="0 0 48 48">
			<path d="M10 12h28v4H10zm0 20h28v4H10zm0-10h28v4H10z" fill-rule="evenodd"></path>
		</symbol>
	
		<symbol id="metro" viewBox="0 0 32 32">
			<path fill-rule="evenodd" d="M6 16c0-5.523 4.476-10 10-10 5.523 0 10 4.476 10 10 0 5.523-4.476 10-10 10-5.523 0-10-4.476-10-10zm4-4v9h3v-5l3 2.5 3-2.5v5h3v-9h-3l-3 3.5-3-3.5h-3z"></path>
		</symbol>
	
		<symbol id="note" viewBox="0 0 32 32">
			<path d="M23 8h-4.18C18.4 6.84 17.3 6 16 6c-1.3 0-2.4.84-2.82 2H9c-1.1 0-2 .9-2 2v14c0 1.1.9 2 2 2h14c1.1 0 2-.9 2-2V10c0-1.1-.9-2-2-2zm-7 0c.55 0 1 .45 1 1s-.45 1-1 1-1-.45-1-1 .45-1 1-1zm2 14h-7v-2h7v2zm3-4H11v-2h10v2zm0-4H11v-2h10v2z"></path>
		</symbol>
	
		<symbol id="parking" viewBox="0 0 32 32">
			<path fill-rule="evenodd" d="M21.92 8.01C21.72 7.42 21.16 7 20.5 7h-11c-.66 0-1.21.42-1.42 1.01L6 14v8c0 .55.45 1 1 1h1c.55 0 1-.45 1-1v-1h12v1c0 .55.45 1 1 1h1c.55 0 1-.45 1-1v-8l-2.08-5.99zM9.5 18c-.83 0-1.5-.67-1.5-1.5S8.67 15 9.5 15s1.5.67 1.5 1.5-.67 1.5-1.5 1.5zm11 0c-.83 0-1.5-.67-1.5-1.5s.67-1.5 1.5-1.5 1.5.67 1.5 1.5-.67 1.5-1.5 1.5zM8 13l1.5-4.5h11L22 13H8z"></path>
		</symbol>
	
		<symbol id="photo" viewBox="0 0 32 32">
			<g fill-rule="evenodd" transform="translate(4 4)"><circle cx="12" cy="12" r="3.2" fill-rule="nonzero"></circle><path fill-rule="nonzero" d="M9 2L7.17 4H4c-1.1 0-2 .9-2 2v12c0 1.1.9 2 2 2h16c1.1 0 2-.9 2-2V6c0-1.1-.9-2-2-2h-3.17L15 2H9zm3 15c-2.76 0-5-2.24-5-5s2.24-5 5-5 5 2.24 5 5-2.24 5-5 5z"></path><path d="M0 0h24v24H0z"></path></g>
		</symbol>
	
		<symbol id="quotes" viewBox="0 0 32 32">
			<g fill-rule="evenodd"><path d="M0 0h32v32H0z"></path><path d="M25.934 25.21c-4.618-1.148-6.926-5.272-6.926-12.374V7h7.805v7.805h-3.34v.773c0 3.82.82 6.164 2.46 7.031v2.602zm-13.008 0C8.309 24.063 6 19.939 6 12.837V7h7.805v7.805h-3.34v.773c0 3.82.82 6.164 2.46 7.031v2.602z"></path></g>
		</symbol>
	
		<symbol id="radio-true-copy" viewBox="0 0 32 32">
			<path d="M8 8h10v4H8zm6 12h10v4H14zm-2-6h8v4h-8zm8-6h4v4h-4zM8 20h4v4H8zm0-6h2v4H8zm14 0h2v4h-2z" fill-rule="evenodd"></path>
		</symbol>
	
		<symbol id="reader" viewBox="0 0 32 32">
			<g fill-rule="evenodd"><path d="M4 4h24v24H4V4zm0 0h24v24H4V4z"></path><path fill-rule="nonzero" d="M17 16h7v1.5h-7V16zm0-2.5h7V15h-7v-1.5zm0 5h7V20h-7v-1.5zM25 8H7c-1.1 0-2 .9-2 2v13c0 1.1.9 2 2 2h18c1.1 0 2-.9 2-2V10c0-1.1-.9-2-2-2zm0 15h-9V10h9v13z"></path></g>
		</symbol>
	
		<symbol id="search" viewBox="0 0 32 32">
			<path fill-rule="evenodd" d="M22.111 21.16l3.658 3.658-1.414 1.414-3.715-3.716A7.999 7.999 0 0 1 8 16a7.999 7.999 0 1 1 15.997 0 7.97 7.97 0 0 1-1.886 5.16zM16 22a6 6 0 1 0 0-12 6 6 0 1 0 0 12z"></path>
		</symbol>
	
		<symbol id="t" viewBox="0 0 40 40">
			<g fill-rule="evenodd"><rect width="40" height="40" rx="20"></rect><path stroke="#FFF" d="M26.87 17.83c0 4.34-3.3 9.342-9.339 9.342a9.263 9.263 0 0 1-5.031-1.476 6.5 6.5 0 0 0 .783.044 6.574 6.574 0 0 0 4.076-1.405 3.29 3.29 0 0 1-3.066-2.278 3.298 3.298 0 0 0 1.48-.057 3.286 3.286 0 0 1-2.632-3.219v-.04c.442.245.95.394 1.487.412a3.282 3.282 0 0 1-1.46-2.735c0-.6.162-1.166.445-1.65a9.333 9.333 0 0 0 6.765 3.432 3.284 3.284 0 0 1 5.594-2.995c.748-.15 1.45-.42 2.084-.797a3.298 3.298 0 0 1-1.443 1.818 6.595 6.595 0 0 0 1.885-.52 6.656 6.656 0 0 1-1.637 1.7c.007.143.009.285.009.424z"></path></g>
		</symbol>
	
		<symbol id="video" viewBox="0 0 32 32">
			<g fill-rule="evenodd"><path d="M4 4h24v24H4z"></path><path fill-rule="nonzero" d="M18 9c0-1.1-.9-2-2-2h-1V6c0-.55-.45-1-1-1h-4c-.55 0-1 .45-1 1v1H8c-1.1 0-2 .9-2 2v15c0 1.1.9 2 2 2h8c1.1 0 2-.9 2-2h8V9h-8zm-2 13h-2v-2h2v2zm0-9h-2v-2h2v2zm4 9h-2v-2h2v2zm0-9h-2v-2h2v2zm4 9h-2v-2h2v2zm0-9h-2v-2h2v2z"></path></g>
		</symbol>
	
		<symbol id="visibility" viewBox="0 0 32 32">
			<path d="M16 8.5c-5 0-9.27 3.11-11 7.5 1.73 4.39 6 7.5 11 7.5s9.27-3.11 11-7.5c-1.73-4.39-6-7.5-11-7.5zM16 21c-2.76 0-5-2.24-5-5s2.24-5 5-5 5 2.24 5 5-2.24 5-5 5zm0-8c-1.66 0-3 1.34-3 3s1.34 3 3 3 3-1.34 3-3-1.34-3-3-3z"></path>
		</symbol>
	
		<symbol id="vk" viewBox="0 0 40 40">
			<g fill-rule="evenodd"><rect width="40" height="40" rx="20"></rect><path d="M27.237 22.008s1.415 1.397 1.764 2.045c.01.014.015.027.018.034.142.238.175.423.105.561-.117.23-.517.344-.653.354h-2.5c-.174 0-.537-.045-.977-.349-.338-.236-.672-.625-.997-1.003-.485-.563-.905-1.05-1.328-1.05a.508.508 0 0 0-.158.025c-.32.103-.73.56-.73 1.777 0 .38-.3.598-.512.598h-1.145c-.39 0-2.422-.137-4.222-2.035-2.203-2.325-4.186-6.988-4.203-7.032-.125-.301.133-.463.415-.463h2.525c.337 0 .447.205.523.387.09.211.42 1.053.962 2 .878 1.543 1.417 2.17 1.848 2.17a.5.5 0 0 0 .232-.06c.563-.314.458-2.322.433-2.739 0-.078-.001-.898-.29-1.291-.206-.285-.558-.394-.771-.434a.918.918 0 0 1 .331-.281c.387-.194 1.084-.222 1.775-.222h.385c.75.01.944.058 1.215.127.55.131.562.486.514 1.701-.015.345-.03.735-.03 1.195 0 .1-.005.207-.005.32-.017.619-.037 1.32.4 1.609a.36.36 0 0 0 .19.055c.151 0 .608 0 1.845-2.122.541-.937.961-2.042.991-2.123.025-.044.099-.177.185-.229a.443.443 0 0 1 .207-.048h2.968c.324 0 .545.048.587.173.073.199-.013.804-1.368 2.639l-.605.798c-1.229 1.61-1.229 1.692.076 2.913z"></path></g>
		</symbol>
	
</svg>
