<svg xmlns="http://www.w3.org/2000/svg" xmlns:xlink="http://www.w3.org/1999/xlink" width="0" height="0" style="position:absolute">
  <symbol id="compare" viewBox="0 0 32 32">
    <g fill="none" fill-rule="evenodd">
        <rect width="12" height="12" x="7" y="13" stroke="#7ED321" stroke-width="2" rx="2"/>
        <path fill="#7ED321" d="M21.994 8C23.102 8 24 8.897 24 10.006V22h-2V10H10V8h11.994z"/>
    </g>
  </symbol>
  <symbol id="compare-fill" viewBox="0 0 32 32">
    <g fill="#7ED321" fill-rule="evenodd">
        <rect width="14" height="14" x="6" y="12" rx="2"/>
        <path d="M21.994 8C23.102 8 24 8.897 24 10.006V22h-2V10H10V8h11.994z"/>
    </g>
  </symbol>
  <symbol id="flame" viewBox="0 0 32 32">
    <g fill="none" fill-rule="evenodd">
        <rect width="30" height="30" x="1" y="1" fill="#FFF" rx="15"/>
        <path fill="#D0011B" fill-rule="nonzero" d="M18.5 10c-1.5-1.938-1.188-6-1.188-6C8 8 14.188 17.625 12.5 18c-1.993.443-2.75-6.438-2.75-6.438C8.5 13.5 8 15.96 8 18c0 4 3.813 8 7.938 8C20.061 26 24 22.936 24 18c0-4.5-4-6.063-5.5-8z"/>
        <path fill="#FFF" d="M15.5 14c0 1-1 2 0 3.5s-1 2-1.5 2.5c.5 1.5 4.5 1 4.5-1.5s-2-3-3-4.5z"/>
    </g>
  </symbol>
  <symbol id="like" viewBox="0 0 32 32">
    <g fill="none" fill-rule="evenodd">
        <rect width="30" height="30" x="1" y="1" fill="#FFF" rx="15"/>
        <path fill="#7ED321" fill-rule="nonzero" d="M7 24h3.2v-9.6H7V24zm17.6-8.8c0-.88-.72-1.6-1.6-1.6h-5.048l.76-3.656.024-.256c0-.328-.136-.632-.352-.848L17.536 8l-5.264 5.272A1.564 1.564 0 0 0 11.8 14.4v8c0 .88.72 1.6 1.6 1.6h7.2c.664 0 1.232-.4 1.472-.976l2.416-5.64a1.58 1.58 0 0 0 .112-.584v-1.528l-.008-.008.008-.064z"/>
    </g>
  </symbol>
  <symbol id="photo" viewBox="0 0 32 32">
    <g fill="none" fill-rule="evenodd" transform="translate(4 4)">
        <circle cx="12" cy="12" r="3.2" fill="#FFF" fill-rule="nonzero"/>
        <path fill="#FFF" fill-rule="nonzero" d="M9 2L7.17 4H4c-1.1 0-2 .9-2 2v12c0 1.1.9 2 2 2h16c1.1 0 2-.9 2-2V6c0-1.1-.9-2-2-2h-3.17L15 2H9zm3 15c-2.76 0-5-2.24-5-5s2.24-5 5-5 5 2.24 5 5-2.24 5-5 5z"/>
        <path d="M0 0h24v24H0z"/>
    </g>
  </symbol>
  <symbol id="video" viewBox="0 0 32 32">
    <g fill="none" fill-rule="evenodd">
        <path d="M4 4h24v24H4z"/>
        <path fill="#FFF" fill-rule="nonzero" d="M18 9c0-1.1-.9-2-2-2h-1V6c0-.55-.45-1-1-1h-4c-.55 0-1 .45-1 1v1H8c-1.1 0-2 .9-2 2v15c0 1.1.9 2 2 2h8c1.1 0 2-.9 2-2h8V9h-8zm-2 13h-2v-2h2v2zm0-9h-2v-2h2v2zm4 9h-2v-2h2v2zm0-9h-2v-2h2v2zm4 9h-2v-2h2v2zm0-9h-2v-2h2v2z"/>
    </g>
  </symbol>
</svg>
