<svg xmlns="http://www.w3.org/2000/svg" width="32" height="32" viewBox="0 0 32 32">
    <path fill="#4A90E2" fill-rule="evenodd" d="M25.799 11.165l-2.375-1.83a1.997 1.997 0 0 0-.521-.237A2.035 2.035 0 0 0 22.336 9H15.5l.801 5h6.035c.164 0 .369-.037.566-.098.197-.061.387-.145.521-.236l2.375-1.832c.135-.091.202-.212.202-.334 0-.122-.067-.243-.201-.335zM14.5 7h-1a.5.5 0 0 0-.5.5V11H9.664c-.166 0-.37.037-.567.099-.198.06-.387.143-.521.236l-2.375 1.83c-.135.091-.201.213-.201.335 0 .121.066.242.201.335l2.375 1.832c.134.091.323.175.521.235.197.061.401.098.567.098H13v8.5a.5.5 0 0 0 .5.5h1a.5.5 0 0 0 .5-.5v-17a.5.5 0 0 0-.5-.5z"/>
</svg>
