<svg xmlns="http://www.w3.org/2000/svg" width="32" height="32" viewBox="0 0 32 32">
    <g fill="none" fill-rule="evenodd">
        <rect width="30" height="30" x="1" y="1" fill="#FFF" rx="15"/>
        <path fill="#7ED321" fill-rule="nonzero" d="M7 24h3.2v-9.6H7V24zm17.6-8.8c0-.88-.72-1.6-1.6-1.6h-5.048l.76-3.656.024-.256c0-.328-.136-.632-.352-.848L17.536 8l-5.264 5.272A1.564 1.564 0 0 0 11.8 14.4v8c0 .88.72 1.6 1.6 1.6h7.2c.664 0 1.232-.4 1.472-.976l2.416-5.64a1.58 1.58 0 0 0 .112-.584v-1.528l-.008-.008.008-.064z"/>
    </g>
</svg>
